<?xml version="1.0" encoding="utf-8"?>
<!-- Generator: Adobe Illustrator 24.1.3, SVG Export Plug-In . SVG Version: 6.00 Build 0)  -->
<svg version="1.1" id="sketchvalley" xmlns="http://www.w3.org/2000/svg" xmlns:xlink="http://www.w3.org/1999/xlink" x="0px"
	 y="0px" viewBox="0 0 703.4 417.6" style="enable-background:new 0 0 703.4 417.6;" xml:space="preserve">
<style type="text/css">
	.st0{fill:#BBBFCB;}
	.st1{fill:#A0A0A0;}
	.st2{fill:#AFAFAF;}
	.st3{fill:#CECECE;}
	.st4{fill:#FFFFFF;}
	.st5{fill:#032A70;}
	.st6{fill:none;stroke:#00662C;stroke-width:3;stroke-linecap:round;stroke-miterlimit:10;}
	.st7{fill:#55AE2D;}
	.st8{fill:#5AAB2C;}
	.st9{fill:none;stroke:#309A32;stroke-linecap:round;stroke-miterlimit:10;}
	.st10{fill:#441C0C;}
	.st11{fill:#F2B98B;}
	.st12{fill:#FFC998;}
	.st13{fill:#E46325;}
	.st14{fill:#E5A57A;}
	.st15{fill:#597EF7;}
	.st16{fill:#00C3FF;}
	.st17{fill:#4C73E0;}
	.st18{fill:#4F5C93;}
	.st19{fill:#263367;}
	.st20{fill:none;stroke:#000000;stroke-width:2;stroke-linecap:round;stroke-miterlimit:10;}
	.st21{fill:#3C322D;}
	.st22{fill:#FFFFFD;}
	.st23{fill:#EFEEEC;}
	.st24{fill:none;stroke:#000000;stroke-width:1.5;stroke-linecap:round;stroke-miterlimit:10;}
	.st25{fill:#FAFBFF;}
	.st26{fill:#3372FF;}
	.st27{clip-path:url(#SVGID_2_);}
	.st28{fill:#FB5A41;}
	.st29{fill:#DEAF33;}
	.st30{fill:#F1844F;}
	.st31{fill:#B55934;}
	.st32{fill:none;stroke:#000000;stroke-width:0.593;stroke-linecap:round;stroke-miterlimit:10;}
	.st33{fill:none;stroke:#B55934;stroke-linecap:round;stroke-miterlimit:10;}
	.st34{fill:none;stroke:#A87731;stroke-width:0.4447;stroke-linecap:round;stroke-miterlimit:10;}
	.st35{fill:#0235A8;}
	.st36{clip-path:url(#SVGID_4_);}
	.st37{fill:#213155;}
	.st38{fill:#EF5233;}
	.st39{fill:#F2844F;}
	.st40{fill:#E16328;}
	.st41{fill:#DB9DB4;}
	.st42{fill:#F28451;}
	.st43{fill:none;stroke:#14364F;stroke-width:0.8121;stroke-miterlimit:10;}
	.st44{fill:none;stroke:#EF5233;stroke-width:0.8121;stroke-miterlimit:10;}
	.st45{fill:#F64F3C;}
	.st46{fill:#14364F;}
	.st47{clip-path:url(#SVGID_6_);}
	.st48{fill:#ED8048;}
	.st49{fill:#E86223;}
	.st50{fill:#753F73;}
	.st51{fill:#FF573D;}
	.st52{fill:#C63E48;}
	.st53{fill:none;stroke:#000000;stroke-width:0.6825;stroke-linecap:round;stroke-miterlimit:10;}
	.st54{fill:none;stroke:#B54D24;stroke-width:0.6825;stroke-linecap:round;stroke-miterlimit:10;}
	.st55{fill:#F8F1EB;}
	.st56{clip-path:url(#SVGID_8_);}
	.st57{fill:#E4D5B6;}
	.st58{fill:#F0632E;}
	.st59{fill:#372F2C;}
	.st60{fill:#F18348;}
	.st61{fill:#E66023;}
	.st62{fill:none;stroke:#8E451C;stroke-width:0.7255;stroke-linecap:round;stroke-miterlimit:10;}
	.st63{fill:#E64E37;}
</style>
<g>
	<path class="st0" d="M33.8,300.3L33.8,300.3c0,3.5,2.9,6.4,6.4,6.4l423.6,0.8c3.5,0,6.4-2.9,6.4-6.4v0c0-3.5-2.9-6.4-6.4-6.4
		l-423.6-0.8C36.7,293.9,33.8,296.8,33.8,300.3z"/>
	<rect x="169.9" y="307" class="st0" width="36" height="90.5"/>
	<path class="st1" d="M181.8,249l-22.7,32.8c0,0-3.4,7.4-2.3,13.3h56.1h38.3v-4.5h-40.7c0,0,0.6-4.4,4-9.9
		c3.4-5.5,19.7-31.8,19.7-31.8L181.8,249z"/>
	<path class="st2" d="M100.3,233.8l-7.6-5.7c-3.5-2.7-5.6-6.9-5.6-11.3V109.5c0-4.4,2.1-8.6,5.6-11.3l7.6-5.7V233.8z"/>
	<path class="st3" d="M102.2,67.6c0,0-6.1-0.8-5.9,7.3s0,171.5,0,171.5s-1.6,5.3,6.3,5.3s194.7-0.4,194.7-0.4s5.9-1.6,5.9-7.9
		s0.2-139.5,0.2-139.5s1.4-6.5-7.1-7.5C287.7,95.3,102.2,67.6,102.2,67.6z"/>
	<path class="st4" d="M110.9,75.8c0,0-5.5-0.7-5.3,6.6c0.2,7.3,0,154.4,0,154.4s-1.5,4.8,5.7,4.8c7.1,0,175.3-0.4,175.3-0.4
		s5.3-1.5,5.3-7.1s0.2-125.6,0.2-125.6s1.3-5.9-6.4-6.8S110.9,75.8,110.9,75.8z"/>
	<path class="st5" d="M111.9,76.8c0,0-5.5-0.7-5.3,6.6c0.2,7.3,0,154.4,0,154.4s-1.5,4.8,5.7,4.8c7.1,0,175.3-0.4,175.3-0.4
		s5.3-1.5,5.3-7.1s0.2-125.6,0.2-125.6s1.3-5.9-6.4-6.8S111.9,76.8,111.9,76.8z"/>
	<g>
		<path class="st6" d="M450,116.8c0,0,45.2,72.8,63.6,176"/>
		<path class="st6" d="M533.1,147.6c0,0-23.5,132.1-22,154"/>
		<path class="st6" d="M448.3,194.5c0,0,51.3,30.4,64.5,99.6"/>
		<path class="st7" d="M535.2,77.9C517.8,70.6,501,94.5,501,94.5s23.4-10.2,25.7-1.8c2.3,8.3-12.6,12-17.5,13.6
			c-4.9,1.6-22.5,18.1-17.6,36.4c0,0,22.5-26.6,30.7-26.3c8.2,0.3-26.4,29.7-26.4,29.7s-3.3,4.6-2.1,10.8s2.3,8.3,2.3,8.3
			s26.5-31,30.2-32c3.7-1.1,8.9-3.7,9.6-0.4c0.7,3.3-24.9,23.2-28.3,26.9c-3.4,3.7-13,11.8-9,21.9c4,10.1,6.1,10.4,6.8,8.7
			s9.8-27.9,22.9-35.9c13.1-7.9,12.4,4,9.3,5.2c-3.1,1.3-26.3,16.3-25.1,25.8c1.2,9.5,3.1,12.5,5.4,10.5c2.3-1.9,6.1-12.5,9.3-13.2
			s4.4,3.1,2.7,6.9c-1.7,3.8-5.7,9.7-1.7,15c4,5.3,10.4,13.5,10.8,15.5c0.4,1.9,3.4,0.8,6.2-2.2c2.9-3,7-2.6,12.9-6.8
			c6-4.2,11.9-8,6.5-14.2s-18.4-21.6-11.2-31.1c7.2-9.6,13.8,10.2,14.6,16.5c0.8,6.2,3.9,20.3,3.9,20.3l19.2-14.1
			c0,0,3.1-3.9-0.8-7.9c-3.8-3.9-23.7-26-22.6-31.4s11.2,1.3,11.7,1.7c0.5,0.4,16.7,13.9,18.6,21.4c1.9,7.5,3,14.1,3,14.1
			s15.5-19.9,15.6-23c0.1-3.1,0.9-11.9-4.3-15.9c-5.2-4-30.4-22.9-44-24.4c-13.6-1.4,6.8-5.3,12.1-3.6c5.3,1.8,39,19.4,41.2,21.7
			c2.2,2.4,2.5-3.6,1.4-12.7c-1.1-9.1-1.1-16.9-9.1-17.8s-36.7-1.3-36.7-1.3s-5.3-3-1.9-5.5c3.4-2.5,22.9-6.8,28.3-5.9
			c5.4,0.9,9.8,3.3,9.8,3.3S609,91.3,605,88.8c-3.9-2.4-15.5-4.3-22.9,2.3s-15.9,11.3-13.8,5s8.9-9.8,14.5-10.9
			c5.6-1.1-1.8-3.6-1.8-3.6s-6.8-4.1-7.5-4.7c-0.6-0.5-11.9-2.7-12.1,1.7s-7,25.1-8.5,25.7c-1.5,0.6-7.7,3-6.3-4.1
			C549.5,86.5,535.2,77.9,535.2,77.9z"/>
		<path class="st8" d="M338.5,78.2c0,0,9.9-6.1,14.6-8c4.7-1.9,10.4-7.5,20.1-0.9C383,76,391,81.1,389.4,74
			c-1.6-7.1-18-18.7-20.5-18.6c-2.5,0.1-8.5-1.6,0.3-3.4c8.8-1.7,17.3-8.5,29.4,7.5c12.1,16,16.5,30,19.2,28.8
			c2.7-1.1,3.3-16.7-2.7-25.4c-6-8.8-20.5-17.8-18.8-19.9c1.7-2.1,21.5-3.7,27.2,1.1s10.8,13.9,13.3,27.1s4.6,21.5,5.2,19.3
			c0.5-2.3,4-24,0.7-31c-3.3-7-12.3-17.7-10.6-19s18.5,4.6,20.6,9.2s4.6,27,2.4,32.7c-2.2,5.7,3.7,9.6,6.5,1.4
			c2.9-8.2,2.1-23.1,1.8-25.4s6.7,0.1,9.4,5c2.7,4.9,19.6,40.9-18.2,55.9c0,0,2.6,27.8-15.3,33.1c-17.9,5.3-35-8.9-33.3-10.4
			c1.7-1.5,12.4-8.5,11.9-10.2s-3-3.5-6.6-1.6s-23.6,8.2-30.3,2.7c-6.8-5.5-12.7-13.7-10.6-14.1c2.1-0.4,22.3-1.9,27.6-3.5
			c5.3-1.6,13-7.3,9.4-7.9s-10.2-0.1-15.8,2.1s-19.6,7.6-27.2,1.7c-7.6-5.9-14.4-12.6-12.9-13.1c1.5-0.5,13.7,1.4,19.1,0.7
			s18.7,1,21.6-0.4c2.9-1.3,1.6-7.9-4.2-7.2C382.2,92,347.1,94.2,338.5,78.2z"/>
		<path class="st8" d="M381.9,170.6c0,0,30.5,5.4,32.1,8.7s0.1,6-5.3,6c-5.5,0-28.8-7.6-30.9-6.1s-12.3,25.8-10.6,26.5
			c1.7,0.7,31-18.3,39.8-6.6c0,0-29.8,5.6-30.9,6.9c-1.1,1.2-8.6,11.6-4.8,20.4s6.4,12.8,6.4,12.8s5.9-24,20.3-28.7
			c14.4-4.7,24.5-6.4,21.3-1.3s-34.8,17.3-35.9,32.6l11.7,8.1c0,0,4-19.3,20.1-22.2c0,0,2.9,4.1-1.6,9.2s-8,9.6,1.9,16.3
			s11.3,8.4,11.3,8.4s7.3-18.3,20.5-20.2c0,0-14.8-12.2-15.3-14.7c-0.5-2.5,1.6-4.2,4.9-2.7c3.2,1.5,14.7,14.9,14.7,14.9l8.7-7.9
			l-18.9-15.1c0,0-2-2.4,0.5-2.9c2.5-0.5,21,9.8,22.4,14.8c1.4,5,11.5-7.4,11.5-7.4s-11.7-13-28.8-15.8c0,0-3-4.2,2.9-6.5
			s23.7-0.7,27.8,7l9.7-18.3c0,0-15.2-7.4-30.1-1c0,0,4.9-12.9,20.3-10c0,0-11.1-11-20-7.2c-8.9,3.8-13.9,19.5-15.3,20.5
			c-1.3,1-6.4,3.6-7.8-4.3c-1.4-7.9-13.5-25.8-28.4-23.2S381.9,170.6,381.9,170.6z"/>
		<path class="st9" d="M338.5,78.2"/>
		<path class="st9" d="M341.5,78.6c0,0,35,5.7,46.5,7.2c11.4,1.5,58.3,18.8,66.7,33.5"/>
		<path class="st9" d="M381.4,52.6c0,0,16.2,12.6,20.6,36"/>
		<path class="st9" d="M365.1,106.4c0,0,35-0.5,48.9-11.4"/>
		<path class="st9" d="M412,43.1c0,0,22.9,42,17.9,56.4"/>
		<path class="st9" d="M379.2,124.7c0,0,38.3-0.2,55.1-21.4"/>
		<path class="st9" d="M445.8,46.9c0,0,6.7,39.9-2.9,62.3c0,0,4.5,30.1-18.1,35.7"/>
		<path class="st9" d="M448.7,112.2c0,0,32.3-15.7,25.2-44.2"/>
		<path class="st9" d="M399.7,162.9c0,0,28.4,7.1,34.3,33.6"/>
		<path class="st9" d="M372.5,189.9c0,0,50.4-9.5,58,10.3"/>
		<path class="st9" d="M426.9,261.6c0,0-10-46.5,10.4-71.6"/>
		<path class="st9" d="M482,195.4c0,0-31.3-13.3-51.5,4.8"/>
		<path class="st9" d="M371.5,225.3c0,0,27.5-29.9,56.7-19.2"/>
		<path class="st9" d="M388.4,245c0,0,14.9-24.7,37.3-27.3"/>
		<path class="st9" d="M427.9,209.6c0,0,23.4-9.6,43.2,14.9"/>
		<path class="st9" d="M426.3,215.1c0,0,19.4,0.5,29.1,19.1"/>
		<line class="st9" x1="553" y1="104.3" x2="539" y2="220.2"/>
		<path class="st9" d="M551.8,110.7c-43.6-19.8-60.1,31.9-60.1,31.9"/>
		<line class="st9" x1="576.2" y1="78.6" x2="552.5" y2="110.6"/>
		<path class="st9" d="M606.5,92.1c0,0-48.6,9.1-54.4,21.8"/>
		<path class="st9" d="M493.8,158.7c0,0,36.6-46.3,57.1-40.8"/>
		<path class="st9" d="M623,132.2c0,0-49-33.1-71.8-16.1"/>
		<path class="st9" d="M550.3,127.7c0,0,48.3,10.8,62.1,43.2"/>
		<path class="st9" d="M547.8,140.8c0,0-44.7,17.1-49.2,40.8"/>
		<path class="st9" d="M513.6,191c0,0,21.8-27.6,31.7-24.5"/>
		<path class="st9" d="M548,148.9c0,0,19.5,8.6,33.3,45.9"/>
		<path class="st9" d="M542.5,187.9c0,0,10.1,4.5,13.5,24.8"/>
	</g>
	<path class="st10" d="M493.8,174.1c0,0,2.6-36.3,37.1-41.1s107.5,12.2,107.5,12.2s22.7,5.2,5.2,55.9
		C626.2,251.9,594.4,398,594.4,398l-125.8-2.3l-31.5-64.9C437.1,330.8,492.1,191.1,493.8,174.1z"/>
	<path class="st10" d="M356.4,346.2c0,0,7.6-31.8,31.8-34.9c24.3-3,68-0.8,68-0.8l-1,13.9l-37.6,1L356.4,346.2z"/>
	<path class="st11" d="M515.3,145.9c0,0,2,12,1.9,18.7c-0.1,6.8-0.8,20.9,3.4,29.3c4.2,8.4,2.3,13.7,7.6,11.7
		c5.3-2,37.8-30.4,41.2-37.8c3.4-7.3,1-13.5,0.3-13.6s-4.3-2.2-5.2-7.1s-4.6-26.1-2.7-29.3C563.7,114.7,515.3,145.9,515.3,145.9z"/>
	<path class="st12" d="M471.9,274.9c-5.2,5-39,21-39,21h-18.7c-22.7-5.2-10.1-54.9-8.4-66.8c1.7-11.8,10-58.4,10.1-66.8
		c0.2-8.4-10.5-7.4-18.9-7.5c-8.4-0.2-13.2-6.9-13.2-6.9s-8.4-16.3-9.8-20.6c-1.4-4.3,0.7-7.4,0.7-7.4s-1-3.8,1.6-5.8
		c1.3-1.1,4.1,1.3,4.1,1.3l13.3,15.3l0,0c0-6.3,6-4,6.8-2.9c0.7,1-0.4,10.4,14.3,12.9c1.1,0.2,2.2,0.3,3.5,0.4
		c18.3,1.6,16.4,27.3,16.4,34.7c0,5.6,1.2,35.7,1.8,49.9c0.2,4.5,0.3,7.4,0.3,7.4l4-3.2l19.8,7.1l15.6,5.6
		C476.2,242.6,477.1,269.9,471.9,274.9z"/>
	<path class="st13" d="M414.8,140.6c-0.1,0-0.1,0-0.2,0c-16.2,3.7-20.6-9.3-20.6-9.3l-0.2-0.8l0,0c0-6.3,6-4,6.8-2.9
		C401.3,128.7,400.1,138.1,414.8,140.6z"/>
	<path class="st14" d="M460.7,237c-9.3,12.4-21.7,34.6-21.7,34.6l-2.7-45.9c0,0,0.1,0,0.2,0c0.2,4.5,0.3,7.4,0.3,7.4l4-3.2
		L460.7,237z"/>
	<path class="st15" d="M673.2,278.7c0,0-13.1-2.5-24.3-1.7c-4.9,0.4-9.5,1.4-12.4,3.5l-29.5,6.4c0,0-0.3,0.8-0.9,2.3
		c-5.6,14.8-36.4,95.1-51.3,107l-120.6-63.7c0,0,35.6-43.4,37.4-60.1c0,0,2.5-17.3,0.4-23.1c0,0-4.3-5.7-11.6-10.5
		c-5.9-3.9-13.8-7.1-22.9-6.2c0,0,12.7-22.1,16-30.5c3.3-8.4,10.1-20.5,20.1-25.2c10.1-4.7,43.1-19.5,43.1-19.5s1.9,15.6,2.8,19.1
		c0.8,3.5,6.2,20.7,6.5,22.7c0.3,2,1.9,2,8.2-2.9c6.2-4.9,22.3-16.7,26-21.2c3.7-4.5,9.9-13,7.9-21.5c0,0,2-0.7,10.6,2.2
		c8.6,2.8,43.7,17.5,52.2,24c8.4,6.5,21.1,21.2,29.9,48.1c8.8,26.9,12.2,46.6,12.4,48.6C673.2,278.7,673.2,278.7,673.2,278.7z"/>
	<path class="st16" d="M617.8,259.8c-4.3-0.9-5.9-2.3-8.4-4.4c-2.9-2.4-6.5-5.5-14.2-7.1c-7.7-1.6-12.2-0.2-15.8,0.9
		c-3.1,1-5.2,1.6-9.5,0.7c-4.3-0.9-5.9-2.3-8.4-4.4c-2.9-2.4-6.5-5.5-14.2-7.1c-7.7-1.6-12.2-0.2-15.8,0.9c-3.1,1-5.2,1.6-9.5,0.7
		c-4.3-0.9-5.9-2.3-8.4-4.4c-2.9-2.4-6.5-5.5-14.2-7.1c-7.7-1.6-12.2-0.2-15.8,0.9c-3.1,1-5.2,1.6-9.5,0.7l-1.3,6.6
		c7.7,1.6,12.2,0.2,15.8-0.9c3.1-1,5.2-1.6,9.5-0.7c4.3,0.9,5.9,2.3,8.4,4.4c2.9,2.4,6.5,5.5,14.2,7.1c7.7,1.6,12.2,0.2,15.8-0.9
		c3.1-1,5.2-1.6,9.5-0.7c4.3,0.9,5.9,2.3,8.4,4.4c2.9,2.4,6.5,5.5,14.2,7.1c7.7,1.6,12.2,0.2,15.8-0.9c3.1-1,5.2-1.6,9.5-0.7
		c4.3,0.9,5.9,2.3,8.4,4.4c2.9,2.4,6.5,5.5,14.2,7.1"/>
	<path class="st4" d="M616.7,274.2c-4.3-0.9-5.9-2.3-8.4-4.4c-2.9-2.4-6.5-5.5-14.2-7.1c-7.7-1.6-12.2-0.2-15.8,0.9
		c-3.1,1-5.2,1.6-9.5,0.7c-4.3-0.9-5.9-2.3-8.4-4.4c-2.9-2.4-6.5-5.5-14.2-7.1c-7.7-1.6-12.2-0.2-15.8,0.9c-3.1,1-5.2,1.6-9.5,0.7
		c-4.3-0.9-5.9-2.3-8.4-4.4c-2.9-2.4-6.5-5.5-14.2-7.1c-7.7-1.6-12.2-0.2-15.8,0.9c-3.1,1-7,1.4-10.4,0.8l0,4.6
		c6.8,1.4,11.8,2.1,15.4,1c3.1-1,5.2-1.6,9.5-0.7c4.3,0.9,5.9,2.3,8.4,4.4c2.9,2.4,6.5,5.5,14.2,7.1c7.7,1.6,12.2,0.2,15.8-0.9
		c3.1-1,5.2-1.6,9.5-0.7c4.3,0.9,5.9,2.3,8.4,4.4c2.9,2.4,6.5,5.5,14.2,7.1c7.7,1.6,12.2,0.2,15.8-0.9c3.1-1,5.2-1.6,9.5-0.7
		s5.9,2.3,8.4,4.4c2.9,2.4,6.5,5.5,14.2,7.1"/>
	<path class="st17" d="M472,249.3c0,0-4.3-5.7-11.6-10.5c5.2-9.6,11.2-21.6,11.5-26.4c0.5-8.5,10.3-21.4,10.3-21.4
		S471,235.2,472,249.3z"/>
	<path class="st17" d="M652.8,281.5c-6.5-0.9-43.7,7.1-46.7,7.7c0.6-1.5,0.9-2.3,0.9-2.3l29.5-6.4c2.9-2.1,7.5-3.1,12.4-3.5
		C653.3,280.8,656.6,282,652.8,281.5z"/>
	<path class="st17" d="M648.9,277c-4.9,0.4-9.5,1.4-12.4,3.5l-29.5,6.4c0,0-0.3,0.8-0.9,2.3c-0.1,0-0.2,0-0.2,0l25.8-70.2
		c10.2-21.7,7.8-2.2,2.8,10.9c-5,13,0.3,17.4,4.7,32.6C641.1,269.3,645.4,274,648.9,277z"/>
	<path class="st10" d="M514.6,350.1c-7.9-0.1-11.9-17,6.2-30.6c18.1-13.6,33.2-10.7,33.2-10.7l46.1,1l-5.7,17l-44,0.5
		c0,0-14.6,0.5-17.7,7.4C529.5,341.6,526.9,350.2,514.6,350.1z"/>
	<path class="st18" d="M274.1,396.4c0,0,63.7-44.8,84.6-55.1c20.8-10.3,44.7-27.2,76.7-11.2s119.4,66.1,119.4,66.1l-133.2-0.5
		c0,0-9.5-16.9-14.9-15.7c-5.4,1.2-47.1,15.7-47.1,15.7L274.1,396.4z"/>
	<path class="st12" d="M675.4,323.6c-0.8,10.6-8.7,29.8-14,32.6c-5.3,2.8-13.6,1.7-21.3-3.6c-7.7-5.3-24.7-19.6-31.1-52.6
		c-6.4-33-24.7-63.4-29.4-65.6c0,0-4.9,13.8-10,14.2c-5.1,0.4-27.2-1.3-27-10.4c0.2-9,3.8-14.7,3.8-14.7s-4.7-2.6-9.4-0.4
		c-4.7,2.3-17,5.1-17,5.1s-9.2-3,1.1-7.8c0,0,24.1-8.7,29.7-9.7c5.6-1,26.4-9,47.1,13.3c14.1,15.2,27,36,33.7,47.7
		c3.1,5.4,5,8.9,5,8.9s0.1-0.1,0.4-0.4c1.3-1,5.9-3.9,16.2-4c5.2,0,11.7,0.6,20,2.5C673.2,278.7,676.1,313,675.4,323.6z"/>
	<path class="st14" d="M653.2,276.1c-1,12.8-1,40.8-4.2,31.9c-2.3-6.3-7.9-18.8-12-27.9C638.2,279.1,642.8,276.2,653.2,276.1z"/>
	<path class="st12" d="M566.1,109.4c-1.1,5.4-2.5,9.9-4.1,13.6c-6.3,14.5-15.7,17.4-18.8,19.5c-3.9,2.7-11.5,4.6-22.4,6.4
		c-10.9,1.8-13-6.9-13-6.9s-0.5-2.1-1.3-5.2c-1.2-4.8-3-11.9-4.6-18c-2.7-10.1-4.2-20.9-3-24.9c1.2-3.9,1.2-7.7,1.2-9.6
		c0-1.9-0.6-23.2-0.6-23.2c0.2-1.7,1.4-3.1,3.3-4.3c12.7-7.9,57.5-4.5,61.9-2.5c0.1,0,0.2,0.1,0.3,0.2
		C569.9,57.5,571.3,83.2,566.1,109.4z"/>
	<path class="st11" d="M539,57.2c0,0-9.2,10.8-17.3,12.4c-8.1,1.6-14.2,1.1-14.4,6.5c-0.2,5.4-2.7,24.1-1.8,28.9
		c0.9,4.7,3.4,27.5,2.9,28.8c-0.1,0.4-0.9,1.6-1.9,2.9c-1.2-4.8-3-11.9-4.6-18c-2.7-10.1-4.2-20.9-3-24.9c1.2-3.9,1.2-7.7,1.2-9.6
		c0-1.9-0.6-23.2-0.6-23.2c0.2-1.7,1.4-3.1,3.3-4.3L539,57.2z"/>
	<path class="st11" d="M566.1,109.4c-1.1,5.4-2.5,9.9-4.1,13.6c-0.5-0.5-1-1-1.4-1.6c-10-15.4,2.6-32,2.6-32
		c3.3-12.7-6.7-26.7-6.7-26.7l8.5-8.4C569.9,57.5,571.3,83.2,566.1,109.4z"/>
	<path class="st19" d="M507.5,26.6c-11.1,3-22.8,17.2-11,33.7c0,0-3.6,15.7,3.3,19.6c0,0,0.4-14.9,1.6-16.1
		c1.2-1.2,11.6,9.3,27.7-0.3s19.8-2.1,19.8-2.1s-8,0.1-13.3,4s-8.5,4.4-8.5,4.4s7.4,0.2,10.9-2.5c3.5-2.7,28.4-15.9,27.5,25.4
		l-0.8,21.5c0,0,19-28.8,20.3-42c1.3-13.2,3.7-47.8-42.3-43c0,0-7.4,1.6-8,2.1s-2.7,3.3-6.2,3C524.9,33.8,517.4,23.9,507.5,26.6z"/>
	<path class="st20" d="M426.1,325.4c0,0-12.7-29.3,10.1-40.2c22.8-10.9,37.7-7.3,52.3-46.8s55.5-57.6,58.1-60.1s23.9-10,24.3-55.9"
		/>
	<path class="st20" d="M501.8,122.2c0,0-6,15.1-12.1,19.7s-15.1,15.9-5.3,29.1c9.8,13.2,21.2,28.3,14,46.7"/>
	<path class="st20" d="M531.1,137.7c0,0,21.3-0.6,33.4-18.6"/>
	
		<ellipse transform="matrix(0.9954 -9.604716e-02 9.604716e-02 0.9954 -10.8342 51.0558)" class="st21" cx="524.9" cy="138.1" rx="8.2" ry="6.1"/>
	
		<ellipse transform="matrix(0.285 -0.9585 0.9585 0.285 307.2472 622.4384)" class="st22" cx="570.9" cy="105.3" rx="17.7" ry="10.9"/>
	<path class="st22" d="M534.4,31.2c0,0,44.3,1.8,35.3,58.5l7.7,1.5c0,0,6.8-61.6-35-62.1L534.4,31.2z"/>
	
		<ellipse transform="matrix(0.285 -0.9585 0.9585 0.285 308.4005 624.2001)" class="st23" cx="572.6" cy="105.4" rx="11.8" ry="6.7"/>
	<path class="st20" d="M526.7,86.3c0,0,11.3-4.7,16.7,5.1"/>
	<path class="st20" d="M501.8,83.8c0,0,7.7-4.3,12.2,1.9"/>
	<path class="st24" d="M516.3,88.6c0,0,3,0.2,0.8,9.4c-2.3,9.2-8.3,12-6.2,14.5c2.1,2.4,6.8,2.8,6.8,2.8"/>
	<path class="st25" d="M516.4,129.2c-5.8-0.7-7.3-8.3-7.3-8.3l18.2,0.6C527.4,121.5,524,130.1,516.4,129.2z"/>
	
		<ellipse transform="matrix(0.2737 -0.9618 0.9618 0.2737 294.1693 580.5681)" class="st21" cx="531.5" cy="95.5" rx="3.3" ry="2.3"/>
	
		<ellipse transform="matrix(0.2737 -0.9618 0.9618 0.2737 278.1008 553.108)" class="st21" cx="505.3" cy="92.4" rx="3.3" ry="2.3"/>
	<polygon class="st26" points="115.1,88.2 114.7,154.4 195.7,160.8 194.8,98.4 	"/>
	<g>
		<defs>
			<polygon id="SVGID_1_" points="115.1,88.2 114.7,154.4 195.7,160.8 194.8,98.4 			"/>
		</defs>
		<clipPath id="SVGID_2_">
			<use xlink:href="#SVGID_1_"  style="overflow:visible;"/>
		</clipPath>
		<g class="st27">
			<g>
				<path class="st28" d="M163.3,120.6c0,0,1.4-2.2,2.8-2.2c1.4-0.1,2.1,2,1.4,4.5c-0.7,2.6-4.7,6.3-4.7,6.3L163.3,120.6z"/>
				<path class="st28" d="M141.8,117.4c0,0-3.3-2.9-4.1,0.1c-0.8,3,0.7,9.4,4.9,10.1L141.8,117.4z"/>
				<path class="st13" d="M142.9,132.3c0,0,2.7,6.7-1.6,14.6l7.1,10.8l11.4-1.3l3.4-12.5c0,0-2.5-6.8-2-10.5L142.9,132.3
					L142.9,132.3z"/>
				<path class="st29" d="M117.1,179.8c0,0,1.1-12.3,8.2-17.4c7.1-4.9,16-15,16.8-16.8c0,0,3.8,10.2,11.4,8.8
					c7.6-1.3,9.8-10.5,9.8-10.5s3.3,2.1,6.2,3c2.9,0.8,14,5.1,15.1,6c1.1,0.8,6.3,6.2,9.3,17.1L117.1,179.8z"/>
				<path class="st21" d="M141.4,119.7c0,0-5.2-17.7,2.8-22.1c8-4.1,13.4-1.1,16.1,1.3c2.7,2.4,7.3,13,3.5,21.8
					C160.1,129.8,141.4,119.7,141.4,119.7z"/>
				<path class="st30" d="M145,103.1c-1.8,1.2-3.9,13.9-3.4,19.1c0.5,5.1,2.1,21.7,11.4,22c3.9,0,9.3-7.8,10.2-16.9
					c1-9,0.8-21-3.3-23.8c-2-0.4-3.8,1-4.9,1.1C153.9,104.8,145.7,102.7,145,103.1z"/>
				<path class="st31" d="M152.1,128.5c-2.1,0.3-5.2,0.8-7.2,4.2c0,0-2.6-2.1-3.1-7.1c0,0-0.9,3.1,0.7,7.9c1.6,4.7,5,11.4,10.4,11.1
					c1.8,0.1,9.7-1.8,10.1-15.6c0,0-1.2,3.4-2,3.9C161,132.9,157.2,127.8,152.1,128.5z"/>
				<path class="st30" d="M152.8,130.7c-1.8-0.1-4.1-0.6-4.7,1.5c-0.6,2.1,0,6.8,4.3,6.5l0.8-1.1l0.7,1.1c0,0,2.4,0.8,3.9-3.2
					c1.5-3.9-1.6-4.7-1.6-4.7L152.8,130.7z"/>
				<path class="st25" d="M153,134.1c-2.4,0.1-3.6-2.1-3.6-2.1s0.2-0.4,2-0.1c1.8,0.2,4.3,0.1,4.3,0.1s1-0.2,0.9,0.2
					C156.5,132.6,156.1,133.9,153,134.1z"/>
				<path class="st32" d="M143.5,116.4c0,0,2.8-3.3,5.3-0.4"/>
				<path class="st32" d="M156.1,116.8c0,0,2.7-4.4,5.4,0"/>
				<path class="st21" d="M147.5,119.6c0,0.8-0.4,1.3-0.8,1.3s-0.7-0.7-0.7-1.4c0-0.8,0.4-1.3,0.8-1.3
					C147.2,118.2,147.6,118.9,147.5,119.6z"/>
				<path class="st21" d="M158.6,120c0,0.7-0.4,1.3-0.8,1.3c-0.4,0-0.7-0.6-0.7-1.4c0-0.7,0.4-1.3,0.8-1.3
					C158.3,118.7,158.6,119.3,158.6,120z"/>
				<path class="st33" d="M151,117.8c0,0,0.7,5,0,7.2c-0.6,2.2-1,4,2.8,3.2"/>
				<path class="st34" d="M121.8,167.1c0,0,4.6,7.9,4.3,11.3"/>
				<path class="st34" d="M184.3,153.4c0,0-2,7.7-0.7,12.7c1.3,5,1.3,5,1.3,5"/>
				<path class="st34" d="M138.8,150c1.6,6.5,20.8,18.3,27.5-4.1"/>
			</g>
		</g>
	</g>
	<polygon class="st35" points="115.4,162 115.3,234.6 196.4,235 196.1,167.2 	"/>
	<g>
		<defs>
			<polygon id="SVGID_3_" points="115.4,162 115.3,234.6 196.4,235 196.1,167.2 			"/>
		</defs>
		<clipPath id="SVGID_4_">
			<use xlink:href="#SVGID_3_"  style="overflow:visible;"/>
		</clipPath>
		<g class="st36">
			
				<ellipse transform="matrix(0.8881 -0.4596 0.4596 0.8881 -77.4518 90.0789)" class="st37" cx="146.3" cy="204.1" rx="6.9" ry="6.6"/>
			<path class="st38" d="M143.3,185.7c0,0-4.2,0-4,4.3c0.2,4.2,1.6,8,7.8,7.1C147.2,197.1,145.3,184.2,143.3,185.7z"/>
			<path class="st39" d="M159.3,240.3l-11.9-0.4l-3.7-24.7c0,0,0,0,0,0l1.1-1.4l2.5-21.2l15.2,10c0,0-0.1,1.3-0.2,3.1
				c-0.2,4.9-0.6,14,0.2,15.2C163.6,222.6,159.3,240.3,159.3,240.3z"/>
			<path class="st40" d="M162.4,202.5c0,0-0.1,1.3-0.2,3.1c-1.5,0.8-3.8,1.7-6.4,1.6c-4.7-0.2-11.6,7.4-12.1,7.9l1.1-1.4l2.5-21.2
				L162.4,202.5z"/>
			<path class="st41" d="M162.2,214.3c0,0-1,6.8-2.6,10.1c-1.6,3.3-4.9,10.8-4.6,12.7c0,0-11.4-16.2-9.8-23c0,0-1.8,0.2-2.8,1.7
				c-1,1.4-19.1,8-21.3,13.6c-2.2,5.6-3.2,12.4-3.2,12.4h67.8c0,0-1.2-11.9-8.3-16.6c-7-4.7-13.6-8.2-14.1-9.7
				C162.8,213.9,162.2,214.3,162.2,214.3z"/>
			<path class="st42" d="M145.5,186c0,0-0.4,20.7,12.1,20.1c2.1-0.1,11-2.3,11.4-16.9c0,0-1.1-17.1-2.6-17.7
				c-1.5-0.6-13-0.6-14.9,1.5C149.8,175.1,145.1,178.3,145.5,186z"/>
			<path class="st43" d="M150.1,185.7c0,0,3.8-3,7.1,1.1"/>
			<path class="st43" d="M162.3,186.7c0,0,1.6-3.3,5.2-1.5"/>
			<path class="st44" d="M161.3,187.5c0,0-2,3.7-0.9,5.8c1.2,2.3-0.1,3.4-2.3,3"/>
			<path class="st45" d="M159,200.8c-2.6,0-3.6-2.3-3.6-2.3l7.2,0.1C162.6,198.6,161.8,200.8,159,200.8z"/>
			
				<ellipse transform="matrix(0.2733 -0.9619 0.9619 0.2733 -69.1107 286.956)" class="st46" cx="155.4" cy="189.2" rx="1.5" ry="1.4"/>
			
				<ellipse transform="matrix(0.2733 -0.9619 0.9619 0.2733 -62.9116 295.2031)" class="st46" cx="163.9" cy="189.2" rx="1.5" ry="1.4"/>
			<path class="st46" d="M160.9,168.1c0,0-17.9-3.3-18.3,17.8c0,0,2.1,0.6,2.9,3.4c0.8,2.9,0.3-8.6,4.3-11.1c0,0-4.4,12.7-1.3,20
				c0,0-1.6-24.1,11.7-25.6c0,0,3-0.8,4.7,1.1c1.6,1.9,6.3,14.5,0.4,25.7c0,0,3.4-5,4.2-10.6c0,0,1.3-1,1.9-3.5
				S171.2,164.6,160.9,168.1z"/>
		</g>
	</g>
	<polygon class="st35" points="205.8,168 206.2,234.3 283.8,235.7 284.5,174.2 	"/>
	<g>
		<defs>
			<polygon id="SVGID_5_" points="205.8,168 206.2,234.3 283.8,235.7 284.5,174.2 			"/>
		</defs>
		<clipPath id="SVGID_6_">
			<use xlink:href="#SVGID_5_"  style="overflow:visible;"/>
		</clipPath>
		<g class="st47">
			<path class="st48" d="M257.5,226l-8.7,6l-6-2.9l-6-2.9c0,0,3.2-10.8,1.4-19.3H257c0,0,0,0.2,0,0.4c-0.1,0.7-0.2,2.1-0.3,3.8
				C256.4,215.7,256.2,222.9,257.5,226z"/>
			<path class="st49" d="M256.9,207.3c-0.1,0.7-0.2,2.1-0.3,3.8c-3,6.1-9.2,14.8-13.9,18l-6-2.9c0,0,3.2-10.8,1.4-19.3L256.9,207.3z
				"/>
			<path class="st50" d="M238.3,222.3c0,0-20.1,10.7-20.7,13.6s0,8.1,0,8.1h59.1v-8.1c0,0-0.6-4-6.6-7.1c-6-3.1-13.6-8.8-13.6-8.8
				s-2.2,6.9-7.2,6.9C244.4,226.9,240.2,226.3,238.3,222.3z"/>
			<path class="st51" d="M259,195.9c0,0,2.4-0.7,2.6,0.2c0.1,0.9,1.8,11.1-4.8,10.9L259,195.9z"/>
			<path class="st51" d="M236.4,195.2c0,0-3.5-0.6-3.4,3.8c0.1,4.4,2.6,8.4,5.7,7.8L236.4,195.2z"/>
			<path class="st52" d="M235.1,186.1c0,0-2.2,3.2-0.9,7c1.3,3.8,2.6,7.5,2.6,7.5h22.7c0,0,6-18-1.5-19.1c0,0,0.2-6.3-4.5-6.8
				c-4.6-0.5-5.6,2.1-5.6,2.1S235.3,176.1,235.1,186.1z"/>
			<path class="st48" d="M238.1,189.1c0,0,14.2,1.5,18.6-3.1c0,0,1.2,12.8,2.1,14.7c0,0-2.1,14.2-7.3,15.2s-12.1,1.6-14.7-15.2
				C236.8,200.7,239.6,191.9,238.1,189.1z"/>
			<path class="st53" d="M239.2,196.9c0,0,3-3.5,5.6,0"/>
			<path class="st53" d="M249.3,196.5c0,0,3-3.5,5.6,0"/>
			<path class="st54" d="M245.9,197.6c0,0,2,5.7,0.6,7.7c-1.4,2,0.9,2,2.2,1.8"/>
			<ellipse cx="242.5" cy="199.2" rx="0.8" ry="1"/>
			<ellipse cx="252.2" cy="198.8" rx="0.8" ry="1"/>
			<path class="st55" d="M248,212.1c-2.4-0.1-3.8-2.2-3.8-2.2h7.1C251.3,209.9,250.4,212.2,248,212.1z"/>
		</g>
	</g>
	<polygon class="st35" points="204.5,99.2 204.9,162 284.2,168.6 284.2,109.4 	"/>
	<g>
		<defs>
			<polygon id="SVGID_7_" points="204.5,99.2 204.9,162 284.2,168.6 284.2,109.4 			"/>
		</defs>
		<clipPath id="SVGID_8_">
			<use xlink:href="#SVGID_7_"  style="overflow:visible;"/>
		</clipPath>
		<g class="st56">
			<path class="st57" d="M247.1,106.7c-4.1,0.7-12.6,0.9-14.6,10.4c-2,9.4-1.1,17-0.5,21.8s-2,10.9-3,11.3c-0.9,0.4,0.3,5,2.6,4.3
				l27.5,0.9c0,0-0.4-12.5,3-17.9s3.8-27.2-6.7-27.5C255.3,110,252.2,105.8,247.1,106.7z"/>
			<path class="st39" d="M260.9,179.4h-30l0.2-19l0.1-5.1c13-1.8,8.8-20.7,8.8-20.7c0-0.2,14.5-0.4,14.5-0.4
				c-0.2,1.7-0.3,3.2-0.3,4.6c-0.6,15.5,6.1,18.1,6.1,18.1L260.9,179.4z"/>
			<path class="st58" d="M254.1,138.7c-1.5,6.7-7.2,7.8-9.5,9.4c-2.8,1.9-2,1.5-4.1,5.4c-1.5,2.8-6.5,5.5-9.3,6.8l-0.1-5.7
				c13-1.8,9-20.1,9-20.1c0-0.2,14.5-0.4,14.5-0.4C254.6,135.9,254.4,137.4,254.1,138.7z"/>
			<path class="st59" d="M260.1,157c0,0,7.9,4,8.6,7.2c0.6,3.2,3.3,16,3.3,16l-62.5,0.2c0,0,10.5-27.8,12.3-28.6s3.7-2.5,7.7-2.1
				c0,0-2.1,3.6,2.1,4.8c0,0-0.9,22.2,7.9,24.3C239.6,178.9,257.4,156.7,260.1,157z"/>
			<path class="st60" d="M263,125.8c-0.1,1.9-0.6,7.8-6.2,8.3c0,0-1.9,4.6-3.2,5.6c-1.2,1-8.8,6.7-13.8-3.4c0,0-1.2-4.4-3.2-5
				c0,0-0.1,0-0.1,0c0,0-3-1.5-1.3-5.9c0,0,0.9-0.5,1.3-0.1c0,0-0.2-7.9,5.3-10.5c0,0,8.1,0.9,10.9-0.9c0,0,0,0,0,0
				c0.2-0.1,0.4-0.3,0.5-0.4c0,0,1.1,4.7,3,5.5c1.9,0.8,1.2,5.8,1.2,5.8s1.6,0.4,2.1-1.2C260.2,122.1,263,123.8,263,125.8z"/>
			<path class="st61" d="M252.8,113.9c-1.9,2.9-6.1,3.5-10.3,5.5c-3.7,1.7-5.2,8.4-5.8,12c0,0-0.1,0-0.1,0c0,0-3.4-1.5-1.6-5.8
				c0,0,1.1-0.6,1.6-0.1c0,0-0.2-7.9,5.3-10.5C241.9,114.8,250,115.7,252.8,113.9z"/>
			<path class="st62" d="M239.2,122.9c0,0,3-3,5.6-0.1"/>
			<path class="st62" d="M248.9,122.8c0,0,3-3,5.6-0.1"/>
			<ellipse class="st59" cx="242.8" cy="125.6" rx="0.9" ry="1.2"/>
			<ellipse class="st59" cx="251.6" cy="125.5" rx="0.9" ry="1.2"/>
			<path class="st63" d="M244.8,134.5h5.6c0,0-0.5,2.2-3,2.2S244.8,134.5,244.8,134.5z"/>
			<path class="st62" d="M246.1,123.9c0,0,0.3,5.3-0.3,7s2.4,1.6,2.4,1.6"/>
		</g>
	</g>
</g>
</svg>
